<!DOCTYPE svg PUBLIC "-//W3C//DTD SVG 1.1//EN" "http://www.w3.org/Graphics/SVG/1.1/DTD/svg11.dtd">
<!-- Uploaded to: SVG Repo, www.svgrepo.com, Transformed by: SVG Repo Mixer Tools -->
<svg width="64px" height="64px" viewBox="0 0 24.00 24.00" xmlns="http://www.w3.org/2000/svg" id="down" class="icon glyph" fill="fff" stroke="fff" transform="rotate(180)">
<g id="SVGRepo_bgCarrier" stroke-width="0"/>
<g id="SVGRepo_tracerCarrier" stroke-linecap="round" stroke-linejoin="round" stroke="#CCCCCC" stroke-width="0.144"/>
<g id="SVGRepo_iconCarrier">
<path d="M19.71,13.29a1,1,0,0,0-1.42,0L13,18.59V3a1,1,0,0,0-2,0V18.59l-5.29-5.3a1,1,0,0,0-1.42,1.42l7,7h0a1.15,1.15,0,0,0,.33.21.94.94,0,0,0,.76,0,1.15,1.15,0,0,0,.33-.21h0l7-7A1,1,0,0,0,19.71,13.29Z" style="fill:#fff"/>
</g>
</svg>